<?xml version="1.0" encoding="UTF-8"?>
<svg version="1.1" xmlns="http://www.w3.org/2000/svg" width="512" height="512">
<path d="M0 0 C5.56122088 4.4536896 8.59259627 9.44122886 9.84375 16.4765625 C11.50634529 36.00191933 5.56838335 52.80337977 -2.15625 70.4765625 C-2.49253418 71.25225586 -2.82881836 72.02794922 -3.17529297 72.82714844 C-14.17256212 97.88920588 -29.38045148 121.13525514 -44.71875 143.7265625 C-45.6622229 145.11621216 -45.6622229 145.11621216 -46.62475586 146.53393555 C-49.51677639 150.75605256 -52.44967605 154.91524028 -55.58984375 158.95703125 C-56.37089478 159.97071777 -56.37089478 159.97071777 -57.16772461 161.00488281 C-58.12561532 162.23347152 -59.10057831 163.44903469 -60.09594727 164.64746094 C-62.3307304 167.50887061 -63.15786033 169.13396445 -63.140625 172.80078125 C-61.9500326 177.24660445 -60.47045761 181.52587293 -58.90625 185.8515625 C-42.10780962 234.12214543 -46.41980197 287.55015378 -68.46875 333.34765625 C-91.03262894 378.67675477 -131.70945647 413.5814316 -179.59375 429.7578125 C-199.26238975 436.0362201 -219.188759 438.89087884 -239.78125 438.7890625 C-240.56961243 438.78690735 -241.35797485 438.7847522 -242.17022705 438.78253174 C-261.06911422 438.69987449 -278.2250261 436.1427646 -296.3984375 430.87890625 C-297.62566528 430.52989258 -297.62566528 430.52989258 -298.87768555 430.17382812 C-301.15625 429.4765625 -301.15625 429.4765625 -303.13208008 428.68554688 C-305.11439431 427.86012172 -305.11439431 427.86012172 -308.15625 427.4765625 C-310.59295193 428.94693073 -312.11915445 430.14573929 -314.09375 432.1015625 C-315.23190521 433.14345831 -316.37400158 434.18106141 -317.51953125 435.21484375 C-318.11330566 435.75705566 -318.70708008 436.29926758 -319.31884766 436.85791016 C-322.33730467 439.51700795 -325.54654153 441.90139648 -328.78125 444.2890625 C-329.45164307 444.785271 -330.12203613 445.28147949 -330.81274414 445.79272461 C-332.21074539 446.82574421 -333.60977202 447.85737744 -335.00976562 448.88769531 C-337.17944505 450.4937319 -339.33296624 452.11959041 -341.484375 453.75 C-419.60466413 512.62929933 -419.60466413 512.62929933 -462.15625 508.4765625 C-468.8339424 506.76310186 -473.0200137 503.2647048 -477 497.734375 C-483.31290985 485.40713888 -480.71660562 469.49706941 -476.89257812 456.74365234 C-474.42476682 449.14547736 -471.34460899 441.7956011 -468.15625 434.4765625 C-467.6924292 433.40220947 -467.6924292 433.40220947 -467.21923828 432.30615234 C-457.22395216 409.41267656 -443.71055325 388.06033239 -429.74609375 367.4140625 C-429.20412354 366.61137939 -428.66215332 365.80869629 -428.10375977 364.98168945 C-427.09743986 363.49853547 -426.08423028 362.0200183 -425.06225586 360.54760742 C-420.91841462 354.46904673 -417.08149218 347.8910032 -416.15625 340.4765625 C-416.01960938 339.55746094 -415.88296875 338.63835937 -415.7421875 337.69140625 C-415.05207592 326.96911704 -418.25117958 318.0845877 -421.65795898 308.03369141 C-424.96471138 298.26032844 -427.49414645 288.65309377 -429.15625 278.4765625 C-429.27049316 277.81849609 -429.38473633 277.16042969 -429.50244141 276.48242188 C-437.53509491 228.73870946 -424.94596142 177.6081951 -397.34155273 138.13208008 C-390.7138244 128.91683799 -383.35941759 120.32648364 -375.15625 112.4765625 C-374.36863281 111.68636719 -373.58101563 110.89617187 -372.76953125 110.08203125 C-347.36780058 84.75623999 -315.13160094 68.16530016 -280.15625 60.4765625 C-279.10308594 60.23292969 -278.04992187 59.98929688 -276.96484375 59.73828125 C-270.59114258 58.40551586 -263.61037452 57.34493294 -257.15625 58.4765625 C-253.95053231 60.97410309 -253.24161486 61.87900847 -252.65625 65.9765625 C-253.2436317 70.0882344 -253.99588201 70.91639603 -257.15625 73.4765625 C-259.65136719 74.31030273 -259.65136719 74.31030273 -262.453125 74.78515625 C-263.48646973 74.97198975 -264.51981445 75.15882324 -265.58447266 75.35131836 C-266.68065918 75.53702393 -267.7768457 75.72272949 -268.90625 75.9140625 C-278.98245137 77.77802275 -288.50947989 80.00665169 -298.15625 83.4765625 C-299.35636719 83.90453125 -300.55648437 84.3325 -301.79296875 84.7734375 C-323.90714355 93.13969279 -343.8103794 105.47138864 -360.68603516 122.04150391 C-362.09767302 123.41938624 -363.53856394 124.76710456 -364.98046875 126.11328125 C-395.50302601 155.24251207 -413.23861039 199.18005906 -414.359375 241.1484375 C-414.69681904 267.19356428 -410.43904251 291.34459116 -401.13671875 315.69921875 C-396.65065418 328.40675623 -397.9970125 344.26181147 -403.15625 356.4765625 C-403.48367188 357.28480469 -403.81109375 358.09304688 -404.1484375 358.92578125 C-406.93180148 365.07153018 -410.81068052 370.46708188 -414.65893555 375.97558594 C-448.8745739 423.99894842 -448.8745739 423.99894842 -463.28125 479.5390625 C-463.28382813 480.74691406 -463.28640625 481.95476562 -463.2890625 483.19921875 C-463.18188681 485.84393657 -462.94325137 487.97189942 -462.15625 490.4765625 C-443.29256313 495.90195917 -424.4946307 485.13137727 -408.15625 476.4765625 C-406.99867188 475.87972656 -405.84109375 475.28289062 -404.6484375 474.66796875 C-383.01798197 463.2135852 -362.53561028 448.35500284 -343.15625 433.4765625 C-342.53443848 432.99960937 -341.91262695 432.52265625 -341.27197266 432.03125 C-337.19695491 428.89139237 -333.16601319 425.69920763 -329.15625 422.4765625 C-328.5159082 421.9623877 -327.87556641 421.44821289 -327.21582031 420.91845703 C-318.63878623 414.01827664 -310.15259944 407.01897552 -301.78466797 399.86669922 C-300.07971004 398.41122239 -298.3701267 396.96130197 -296.66015625 395.51171875 C-289.91416983 389.7785544 -283.30697912 383.9260483 -276.80859375 377.9140625 C-274.68134466 375.95912372 -272.53352748 374.04774205 -270.34375 372.1640625 C-265.2509027 367.74187822 -260.35397082 363.10723406 -255.43774414 358.4909668 C-252.75591064 355.97406216 -250.06872487 353.46317236 -247.37524414 350.95874023 C-236.75690136 341.059231 -226.42076575 330.89631966 -216.16845703 320.61914062 C-213.5027819 317.94803642 -210.83170838 315.2824124 -208.16015625 312.6171875 C-206.43717878 310.8935502 -204.71451102 309.16960325 -202.9921875 307.4453125 C-201.81394913 306.27011047 -201.81394913 306.27011047 -200.61190796 305.07116699 C-196.45019376 300.89185438 -192.44874987 296.63261569 -188.61184692 292.15234375 C-186.7286647 289.98429749 -184.71675749 287.9755623 -182.65625 285.9765625 C-179.35361149 282.71271337 -176.25574352 279.3624206 -173.234375 275.83984375 C-170.43779388 272.65952123 -167.54632216 269.57181798 -164.65625 266.4765625 C-160.06531634 261.55047715 -155.53374459 256.59443672 -151.15625 251.4765625 C-150.28002679 250.45435947 -149.40371655 249.43223104 -148.52734375 248.41015625 C-147.01297185 246.64355701 -145.4991357 244.87651121 -143.98681641 243.1081543 C-140.72055841 239.29111356 -137.43462012 235.49205975 -134.13525391 231.70361328 C-128.35056307 225.05791368 -122.69516106 218.32948212 -117.15625 211.4765625 C-116.12693512 210.21693037 -115.09693954 208.95785427 -114.06640625 207.69921875 C-107.7435631 199.96715702 -101.53134171 192.17315701 -95.48681641 184.22070312 C-94.03368303 182.31589857 -92.5702466 180.4193007 -91.10546875 178.5234375 C-87.76428332 174.19311532 -84.45090762 169.84237984 -81.15625 165.4765625 C-80.67414063 164.8381543 -80.19203125 164.19974609 -79.6953125 163.54199219 C-71.34976925 152.41268002 -63.63468408 140.85016208 -55.90625 129.2890625 C-55.39250824 128.52242279 -54.87876648 127.75578308 -54.34945679 126.96591187 C-47.65719082 116.96726591 -41.22832407 106.86403457 -35.15625 96.4765625 C-34.67542969 95.65647705 -34.19460938 94.8363916 -33.69921875 93.99145508 C-23.86165703 77.02519698 -14.56109017 59.39350308 -9.15625 40.4765625 C-8.91390625 39.75210938 -8.6715625 39.02765625 -8.421875 38.28125 C-6.20970331 31.13653331 -5.93169092 21.66633744 -8.15625 14.4765625 C-28.45027556 8.71968586 -49.81292461 21.59412317 -67.25268555 31.17822266 C-76.04520778 36.11426732 -84.47689493 41.47907257 -92.84375 47.1015625 C-93.49145355 47.53454651 -94.1391571 47.96753052 -94.80648804 48.41363525 C-104.45616491 54.86730216 -113.9147856 61.52765663 -123.17578125 68.53125 C-139.66728982 80.91841584 -155.24602556 87.00206565 -176.15625 84.4765625 C-182.86336639 83.11370095 -189.39875281 81.15348343 -195.9609375 79.2265625 C-205.18573269 76.53517267 -214.52868637 75.2182233 -224.0390625 73.96484375 C-225.21210938 73.80371094 -226.38515625 73.64257812 -227.59375 73.4765625 C-229.10775391 73.2909375 -229.10775391 73.2909375 -230.65234375 73.1015625 C-233.4371513 72.40644673 -234.45549376 71.75524561 -236.15625 69.4765625 C-237.26903259 65.82027684 -237.47573363 64.16117029 -235.84375 60.6640625 C-234.15625 58.4765625 -234.15625 58.4765625 -232.15625 57.4765625 C-216.07809535 55.91234012 -199.51857249 59.98913272 -184.28125 64.7265625 C-172.33647318 68.37470993 -160.75362723 69.64512039 -148.84375 64.9375 C-142.56789951 61.52591849 -136.82293755 57.28996286 -131.13525391 52.98779297 C-110.91717617 37.7182914 -89.60002525 23.26711137 -67.15625 11.4765625 C-66.36250977 11.05842285 -65.56876953 10.6402832 -64.75097656 10.20947266 C-47.04105056 1.02294409 -19.19902856 -12.10079617 0 0 Z M-77.15625 187.4765625 C-79.05541251 189.4735108 -79.05541251 189.4735108 -81.09375 192.1015625 C-81.89296875 193.10058594 -82.6921875 194.09960938 -83.515625 195.12890625 C-84.39633011 196.24439963 -85.27651933 197.36030047 -86.15625 198.4765625 C-87.09890882 199.66540384 -88.0416181 200.85420518 -88.984375 202.04296875 C-92.40825727 206.36066085 -92.40825727 206.36066085 -95.7722168 210.72485352 C-97.15625 212.4765625 -97.15625 212.4765625 -98.84692383 214.28881836 C-102.20745794 218.10820493 -103.56502655 220.61325278 -103.26953125 225.76953125 C-103.03057781 227.73797284 -102.76217954 229.70300153 -102.46875 231.6640625 C-102.22275161 233.80743432 -101.98725103 235.95203439 -101.76171875 238.09765625 C-101.64876465 239.16870605 -101.53581055 240.23975586 -101.41943359 241.34326172 C-99.15636865 268.28591064 -107.16768082 295.13319945 -120.15625 318.4765625 C-120.74535156 319.54003906 -121.33445312 320.60351562 -121.94140625 321.69921875 C-125.85715416 328.04112482 -125.85715416 328.04112482 -129.265625 329.18359375 C-132.20491509 329.32841279 -134.56096177 328.79280937 -137.15625 327.4140625 C-138.74976312 324.32663082 -138.44235105 321.91675314 -138.15625 318.4765625 C-137.05792513 315.77895379 -135.56988498 313.38119464 -134.03125 310.9140625 C-121.61689711 289.83643865 -112.95581578 263.22506683 -117.15625 238.4765625 C-119.27819439 240.06802079 -121.20532381 241.68581762 -123.15625 243.4765625 C-123.84074219 244.10046875 -124.52523437 244.724375 -125.23046875 245.3671875 C-130.9782135 251.44428546 -132.04585972 256.76586923 -133.01782227 264.74389648 C-135.68414711 285.62370639 -144.96738193 305.00818297 -159.15625 320.4765625 C-159.59275879 320.9607666 -160.02926758 321.4449707 -160.47900391 321.94384766 C-176.22724022 339.24746534 -198.23877069 351.68386086 -221.63769531 354.80786133 C-228.70874844 355.8157906 -232.34837002 358.49041084 -237.28125 363.5390625 C-237.9515625 364.18939453 -238.621875 364.83972656 -239.3125 365.50976562 C-241.79079227 367.93931702 -241.79079227 367.93931702 -244.15625 370.4765625 C-244.15625 370.8065625 -244.15625 371.1365625 -244.15625 371.4765625 C-214.42431828 372.49015108 -184.75853303 363.24491916 -162.34375 343.4140625 C-158.94739595 340.54948619 -156.65075051 338.85487573 -152.15625 338.6015625 C-149.01671457 338.96165258 -148.34231857 339.29049393 -146.03125 341.6015625 C-144.88545742 345.36630955 -144.69871136 346.75983896 -146.15625 350.4765625 C-152.3887377 357.70441065 -161.03701859 362.6303493 -169.15625 367.4765625 C-169.73616699 367.82750977 -170.31608398 368.17845703 -170.91357422 368.54003906 C-191.85408157 381.04201003 -215.93736245 386.469803 -240.15625 386.6015625 C-240.9385498 386.60776611 -241.72084961 386.61396973 -242.52685547 386.62036133 C-246.87910618 386.61440938 -250.81351834 386.21129339 -255.09375 385.3515625 C-258.68173702 384.95715782 -259.84070412 385.26287863 -262.87890625 387.3203125 C-265.753138 389.93986549 -268.4417256 392.69273109 -271.15625 395.4765625 C-272.98731376 397.02513396 -274.84126622 398.54710985 -276.71875 400.0390625 C-284.70432992 406.45987556 -284.70432992 406.45987556 -292.15625 413.4765625 C-292.15625 414.1365625 -292.15625 414.7965625 -292.15625 415.4765625 C-288.95065116 416.27956822 -285.74133009 417.06668028 -282.53125 417.8515625 C-281.64695312 418.07328125 -280.76265625 418.295 -279.8515625 418.5234375 C-266.8799317 421.6736907 -254.0915825 422.88880209 -240.78125 422.8515625 C-239.67423737 422.85074677 -239.67423737 422.85074677 -238.54486084 422.84991455 C-192.05518962 422.69352689 -150.55033785 404.31634161 -117.15625 372.4765625 C-116.37636719 371.74953125 -115.59648437 371.0225 -114.79296875 370.2734375 C-89.0998392 345.62993846 -74.11581632 311.90053312 -67.15625 277.4765625 C-66.785 275.67445313 -66.785 275.67445313 -66.40625 273.8359375 C-61.55430128 244.85902156 -65.95335453 215.08524891 -75.15625 187.4765625 C-75.81625 187.4765625 -76.47625 187.4765625 -77.15625 187.4765625 Z M-153.15625 277.4765625 C-152.15625 279.4765625 -152.15625 279.4765625 -152.15625 279.4765625 Z M-154.15625 279.4765625 C-159.11228238 284.33145136 -163.89430757 289.24496683 -168.41015625 294.51171875 C-170.80834001 297.21034611 -173.37236524 299.71970825 -175.96875 302.2265625 C-177.81503932 304.12560294 -179.53143986 306.06114929 -181.25390625 308.0703125 C-185.78469313 313.28706898 -190.6872948 318.11602805 -195.59375 322.9765625 C-196.51607422 323.894375 -197.43839844 324.8121875 -198.38867188 325.7578125 C-200.64224899 327.99971305 -202.89814075 330.2392285 -205.15625 332.4765625 C-204.49625 332.8065625 -203.83625 333.1365625 -203.15625 333.4765625 C-180.12588487 324.84955276 -164.69191379 305.57368653 -153.8359375 284.46484375 C-152.87502161 282.31008709 -152.87502161 282.31008709 -154.15625 279.4765625 Z " fill="#000000" transform="translate(491.15625,3.5234375)"/>
<path d="M0 0 C3.0573256 1.91271109 4.62969761 3.96437906 5.9609375 7.2421875 C9.85971678 31.45565882 -14.26733003 58.92463224 -27.4140625 77.2421875 C-37.66082805 91.37470355 -48.55152037 105.00485162 -59.61523438 118.50244141 C-60.89132554 120.06167077 -62.16093631 121.6261985 -63.4296875 123.19140625 C-68.99469682 130.04757781 -74.72627218 136.75131679 -80.49072266 143.43945312 C-82.01746941 145.21704663 -83.53547958 147.00170765 -85.05078125 148.7890625 C-91.00496613 155.80135889 -97.10891693 162.63607853 -103.37890625 169.3671875 C-105.43327744 171.58747707 -107.44242899 173.82436056 -109.4140625 176.1171875 C-113.34239584 180.65723211 -117.46381317 185.01614817 -121.56933594 189.39526367 C-124.4581947 192.47678932 -127.34129599 195.5622378 -130.19140625 198.6796875 C-136.02188933 205.05660049 -141.97326197 211.25177443 -148.15234375 217.29296875 C-150.20850486 219.3442284 -152.11180841 221.47460943 -153.9921875 223.6875 C-159.19648677 229.69694711 -164.8904825 235.2423386 -170.51782227 240.85131836 C-172.47201874 242.8001562 -174.42081397 244.75428022 -176.36914062 246.70898438 C-181.90598529 252.24848092 -187.42184974 257.7419387 -193.39477539 262.81616211 C-196.08586552 265.15003849 -198.55382158 267.69324408 -201.0390625 270.2421875 C-204.81364718 274.06316897 -208.63209012 277.73063598 -212.7265625 281.2109375 C-216.01265903 284.09737364 -219.17067461 287.11577679 -222.3515625 290.1171875 C-227.57967535 295.03597895 -232.89758485 299.69584947 -238.5078125 304.17578125 C-241.04044403 306.24331532 -243.4463741 308.40332091 -245.8515625 310.6171875 C-251.40829006 315.67354622 -257.29928246 320.24625156 -263.23779297 324.83935547 C-264.98618354 326.20100527 -266.71989554 327.57908808 -268.44921875 328.96484375 C-310.08358483 362.27233662 -310.08358483 362.27233662 -328.3515625 361.2421875 C-332.88431665 360.01296603 -334.7461534 358.5350966 -338.0390625 355.2421875 C-341.20101687 348.91827875 -339.31412957 340.02307924 -337.2265625 333.6171875 C-334.8400436 327.58309141 -331.88523199 321.90657155 -328.7265625 316.2421875 C-328.28916748 315.44087402 -327.85177246 314.63956055 -327.40112305 313.81396484 C-323.40244402 306.93863713 -317.89664733 301.44759366 -310.0390625 299.2421875 C-301.97759908 298.06578347 -295.70070851 299.63573015 -289.0390625 304.2421875 C-285.21471372 307.42914482 -281.59738022 310.75828327 -278.0390625 314.2421875 C-268.65233653 307.38369145 -259.71642077 299.97473312 -251.0390625 292.2421875 C-253.44510644 289.73589173 -255.96293587 287.43362729 -258.6015625 285.1796875 C-284.63323529 262.37787041 -303.21703189 230.26117621 -306.0390625 195.2421875 C-307.90194067 152.0668705 -297.76856153 115.3455214 -268.4765625 82.8046875 C-263.39046852 77.41167405 -257.95257181 72.70325593 -252.0390625 68.2421875 C-251.23984375 67.63890625 -250.440625 67.035625 -249.6171875 66.4140625 C-219.61181044 44.64545561 -182.31600006 35.85542785 -145.58569336 41.06225586 C-142.03703212 41.66267578 -138.5375333 42.39870237 -135.0390625 43.2421875 C-134.34200195 43.40847656 -133.64494141 43.57476562 -132.92675781 43.74609375 C-104.74366739 50.72402535 -78.38850528 66.54682406 -60.0390625 89.2421875 C-56.53681587 87.80118132 -54.88804896 86.08640661 -52.69140625 83.03125 C-52.08619141 82.19851562 -51.48097656 81.36578125 -50.85742188 80.5078125 C-50.23673828 79.63640625 -49.61605469 78.765 -48.9765625 77.8671875 C-48.35201172 77.00351563 -47.72746094 76.13984375 -47.08398438 75.25 C-45.91924615 73.63900668 -44.757966 72.02550334 -43.60131836 70.40869141 C-42.54501832 68.9438365 -41.45566207 67.5023487 -40.33740234 66.08422852 C-38.84963927 64.35224037 -38.84963927 64.35224037 -39.05078125 62.29296875 C-40.45547408 59.37809233 -42.48816469 57.62699 -44.8515625 55.4296875 C-51.06779834 49.39993873 -55.09729141 43.87758137 -55.2890625 34.9921875 C-55.16573183 29.19564619 -54.19433016 24.76420234 -50.36328125 20.28125 C-39.00911247 9.4616466 -16.18306285 -6.01439501 0 0 Z M-35.9921875 29.15234375 C-38.22097468 31.15725443 -38.22097468 31.15725443 -39.17578125 34.12109375 C-39.01345206 37.82683735 -37.85779929 39.15795616 -35.21679688 41.6796875 C-34.68376953 42.1540625 -34.15074219 42.6284375 -33.6015625 43.1171875 C-33.07240234 43.61476563 -32.54324219 44.11234375 -31.99804688 44.625 C-30.69360558 45.84717924 -29.36825704 47.04697577 -28.0390625 48.2421875 C-24.94482173 44.56906873 -22.44056165 40.73467198 -20.1015625 36.5546875 C-19.75673828 35.94326904 -19.41191406 35.33185059 -19.05664062 34.7019043 C-13.47181158 25.93591752 -13.47181158 25.93591752 -11.0390625 16.2421875 C-19.46477332 16.2421875 -29.21698143 24.52131417 -35.9921875 29.15234375 Z M-196.0390625 59.2421875 C-197.02495361 59.49162109 -197.02495361 59.49162109 -198.03076172 59.74609375 C-231.18789973 68.46953079 -257.82709305 89.82477203 -275.0390625 119.2421875 C-285.73193455 137.73559736 -290.44986774 158.22876506 -290.3515625 179.4921875 C-290.34592285 180.77198486 -290.3402832 182.05178223 -290.33447266 183.37036133 C-290.21501336 192.68286415 -289.56833301 201.2364516 -287.0390625 210.2421875 C-286.84570312 210.94279297 -286.65234375 211.64339844 -286.453125 212.36523438 C-278.85485497 239.21714543 -262.71801693 262.3387709 -240.72265625 279.484375 C-239.04869481 280.39991449 -239.04869481 280.39991449 -237.08984375 280.08984375 C-234.54228637 279.03685336 -232.84536879 277.63632329 -230.7890625 275.8046875 C-229.72945312 274.87849609 -229.72945312 274.87849609 -228.6484375 273.93359375 C-226.80928887 272.38982302 -226.80928887 272.38982302 -227.0390625 270.2421875 C-228.74514805 268.89304893 -230.50718076 267.61450472 -232.2890625 266.3671875 C-255.33207882 249.56799655 -269.15990707 224.86128227 -274.3515625 196.9921875 C-278.09013135 168.19801778 -272.22482381 139.10079068 -255 115.44140625 C-253.07024562 112.98637124 -251.07411144 110.61016878 -249.0390625 108.2421875 C-248.52214844 107.58089844 -248.00523437 106.91960937 -247.47265625 106.23828125 C-231.10618386 85.93401099 -204.31580067 74.56735647 -178.9140625 71.4921875 C-177.29059162 71.3830466 -175.66509998 71.30194998 -174.0390625 71.2421875 C-172.96011719 71.190625 -171.88117188 71.1390625 -170.76953125 71.0859375 C-139.02176626 70.27449303 -111.61810362 82.38740021 -88.53125 103.734375 C-84.98745284 107.30039032 -81.94023344 111.14292208 -79.0390625 115.2421875 C-74.17457568 110.55236497 -74.17457568 110.55236497 -70.0390625 105.2421875 C-70.21948297 100.93108795 -73.43128798 98.1591057 -76.2265625 95.1796875 C-76.75975098 94.60968018 -77.29293945 94.03967285 -77.84228516 93.45239258 C-98.83998926 71.55722068 -129.60979662 56.8925827 -160.08203125 55.94140625 C-162.13012149 55.92214521 -164.17841179 55.91858336 -166.2265625 55.9296875 C-167.85839478 55.93705933 -167.85839478 55.93705933 -169.52319336 55.94458008 C-178.62506007 56.07569214 -187.22077354 56.99729109 -196.0390625 59.2421875 Z M-228.0390625 109.2421875 C-229.0496875 110.0053125 -230.0603125 110.7684375 -231.1015625 111.5546875 C-248.80763749 127.75386249 -259.07938614 150.87205497 -260.3203125 174.6875 C-261.14063844 201.27520695 -251.72399183 224.96561405 -233.921875 244.57421875 C-228.63796575 250.09317734 -222.80102192 255.60031329 -216.0390625 259.2421875 C-213.10785773 259.19212897 -212.12383409 258.31535714 -209.8984375 256.39453125 C-208.85429687 255.29818359 -208.85429687 255.29818359 -207.7890625 254.1796875 C-207.08265625 253.44621094 -206.37625 252.71273437 -205.6484375 251.95703125 C-205.11734375 251.39113281 -204.58625 250.82523438 -204.0390625 250.2421875 C-206.88058548 247.2416982 -209.82654172 244.89496154 -213.2265625 242.5546875 C-228.05438751 231.85338103 -239.972879 215.63928849 -243.0390625 197.2421875 C-243.40913569 194.15486458 -243.64223404 191.3077913 -243.0390625 188.2421875 C-240.9140625 186.1171875 -240.9140625 186.1171875 -238.0390625 185.2421875 C-234.9140625 185.2421875 -234.9140625 185.2421875 -232.0390625 186.2421875 C-229.29095614 190.02520414 -228.06732883 193.98350363 -226.7265625 198.4296875 C-221.55170482 214.59620989 -210.5984585 227.51498251 -195.7265625 235.8046875 C-192.34538338 237.56855144 -192.34538338 237.56855144 -190.06396484 236.61083984 C-187.58970964 234.93846527 -185.89687125 233.05038506 -183.953125 230.78125 C-179.00552296 225.14507462 -173.75365187 219.87983754 -168.4140625 214.6171875 C-162.95415092 209.23527465 -157.59695308 203.85742546 -152.60791016 198.03369141 C-150.21537547 195.30159997 -147.63814883 192.77583385 -145.0390625 190.2421875 C-141.09415353 186.35100891 -137.3389986 182.39028759 -133.74609375 178.16796875 C-131.76306455 175.93082139 -129.66712864 173.84164098 -127.5390625 171.7421875 C-124.07034377 168.31476305 -120.77718979 164.80358476 -117.6171875 161.08984375 C-116.59059032 159.8879119 -115.53927252 158.7065215 -114.4609375 157.55078125 C-112.86392291 155.85787672 -112.86392291 155.85787672 -111.0390625 153.2421875 C-111.97827546 144.75448519 -121.01457792 135.55687428 -127.3203125 130.36328125 C-133.17703254 126.0726778 -139.27773441 122.86412297 -146.0390625 120.2421875 C-146.8434375 119.92121094 -147.6478125 119.60023438 -148.4765625 119.26953125 C-163.17695269 114.33111892 -180.07779932 116.33502597 -193.98828125 122.5625 C-209.15740469 130.30573456 -219.06204103 141.6291374 -225.75 157.234375 C-229.2890625 165.4921875 -229.2890625 165.4921875 -231.0390625 167.2421875 C-238.20939562 167.82044017 -238.20939562 167.82044017 -241.1015625 165.8046875 C-243.85828357 158.26964992 -239.93118014 150.60083392 -236.84765625 143.74609375 C-234.11665756 138.45515245 -230.76446921 133.86865803 -227.0390625 129.2421875 C-226.56984375 128.60925781 -226.100625 127.97632813 -225.6171875 127.32421875 C-215.35532813 114.13471126 -197.71920615 105.23412837 -181.45019531 102.53955078 C-158.23315815 99.67621023 -137.04338865 103.83494847 -118.1640625 118.1171875 C-110.48552839 124.14974833 -104.51103822 131.20522316 -99.0390625 139.2421875 C-94.17457568 134.55236497 -94.17457568 134.55236497 -90.0390625 129.2421875 C-90.26364843 125.01248575 -93.27720867 122.12182855 -95.9140625 119.0546875 C-96.65499146 118.19194214 -96.65499146 118.19194214 -97.41088867 117.31176758 C-112.57311616 100.0704789 -134.96227099 88.61233688 -157.8515625 86.37109375 C-183.97917708 84.83143075 -207.97563096 92.08170668 -228.0390625 109.2421875 Z M-313.25366211 322.13330078 C-314.46397459 324.27056993 -315.60529435 326.43195621 -316.7265625 328.6171875 C-317.11650391 329.34679687 -317.50644531 330.07640625 -317.90820312 330.828125 C-320.20886961 335.2328198 -321.84863384 339.41681358 -323.0390625 344.2421875 C-316.42851981 342.11283 -310.64813116 338.96795667 -304.7890625 335.3046875 C-303.77972656 334.67651123 -303.77972656 334.67651123 -302.75 334.03564453 C-298.56953513 331.37431598 -294.78159585 328.49075294 -291.0390625 325.2421875 C-292.68458095 323.54827145 -294.34320073 321.88477613 -296.0390625 320.2421875 C-296.53148437 319.76523437 -297.02390625 319.28828125 -297.53125 318.796875 C-299.79943359 316.74023185 -301.60478353 315.3481092 -304.6015625 314.6171875 C-308.67747673 315.66229371 -311.01852598 318.65322753 -313.25366211 322.13330078 Z " fill="#000000" transform="translate(418.0390625,71.7578125)"/>
</svg>
