<?xml version="1.0" standalone="no"?>
<!DOCTYPE svg PUBLIC "-//W3C//DTD SVG 20010904//EN"
 "http://www.w3.org/TR/2001/REC-SVG-20010904/DTD/svg10.dtd">
<svg version="1.0" xmlns="http://www.w3.org/2000/svg"
 width="512.000000pt" height="512.000000pt" viewBox="0 0 512.000000 512.000000"
 preserveAspectRatio="xMidYMid meet">

<g transform="translate(0.000000,512.000000) scale(0.100000,-0.100000)"
fill="#000000" stroke="none">
<path d="M3318 5105 c-233 -28 -504 -99 -741 -195 -185 -74 -255 -108 -267
-129 -27 -51 4 -111 59 -111 16 0 64 16 107 36 291 134 623 227 912 255 93 9
129 17 148 31 32 26 33 76 1 106 -27 26 -57 27 -219 7z"/>
<path d="M4452 4827 c-36 -39 -29 -75 25 -121 175 -153 263 -261 342 -421 50
-101 101 -251 122 -359 19 -98 81 -135 134 -81 30 29 30 35 5 148 -42 190
-129 392 -230 536 -106 150 -292 321 -349 321 -16 0 -37 -10 -49 -23z"/>
<path d="M3400 4699 c-189 -20 -443 -86 -477 -125 -37 -41 -28 -88 20 -109 26
-11 41 -10 101 7 165 46 257 64 430 83 60 7 106 36 106 69 0 28 -22 64 -47 75
-26 12 -24 12 -133 0z"/>
<path d="M3921 4529 c-553 -71 -1426 -638 -2141 -1390 -96 -101 -224 -241
-284 -311 -60 -71 -112 -128 -115 -128 -34 0 -41 104 -16 214 19 81 69 228
124 363 55 134 55 178 4 234 -27 28 -51 43 -81 50 -70 15 -112 -10 -227 -137
-508 -562 -778 -1132 -802 -1694 -7 -179 7 -308 37 -332 29 -23 62 -23 91 1
24 19 24 21 25 238 0 179 4 237 22 328 89 457 321 889 716 1334 54 61 101 109
103 107 3 -2 -2 -17 -10 -33 -33 -63 -118 -308 -142 -404 -27 -111 -32 -218
-14 -282 14 -50 71 -113 116 -128 46 -15 118 -6 145 17 11 11 87 96 168 189
653 753 1471 1369 2072 1560 204 65 366 78 494 39 60 -18 97 -6 115 37 25 63
-27 104 -162 128 -73 12 -143 13 -238 0z"/>
<path d="M2475 4399 c-163 -84 -444 -262 -504 -318 -38 -35 -42 -80 -9 -111
34 -31 69 -25 139 25 98 68 303 196 411 255 110 60 130 88 103 140 -26 50 -57
52 -140 9z"/>
<path d="M1680 4403 c-19 -7 -163 -119 -252 -196 -60 -51 -68 -62 -68 -92 0
-73 68 -97 132 -47 167 130 276 224 281 243 14 53 -44 110 -93 92z"/>
<path d="M4417 4262 c-26 -29 -20 -70 22 -152 279 -538 161 -1269 -313 -1940
-104 -147 -399 -495 -382 -450 3 8 31 80 62 160 99 253 134 442 103 553 -14
50 -71 113 -116 128 -46 15 -118 6 -145 -17 -11 -11 -77 -84 -146 -164 -726
-841 -1627 -1494 -2244 -1627 -111 -24 -264 -23 -338 2 -103 34 -209 170 -294
373 -36 87 -58 112 -100 112 -26 0 -66 -41 -66 -68 0 -56 91 -253 165 -357
120 -169 241 -230 460 -229 132 0 230 19 409 81 638 218 1474 856 2130 1626
60 70 112 127 115 127 33 0 42 -109 16 -215 -18 -76 -71 -231 -124 -362 -55
-134 -55 -178 -3 -234 25 -28 50 -43 79 -50 69 -15 108 8 216 124 479 522 745
1050 807 1602 32 289 -20 605 -141 861 -54 114 -72 134 -118 134 -24 0 -44 -7
-54 -18z"/>
<path d="M1092 3888 c-208 -217 -412 -470 -412 -513 0 -38 37 -75 75 -75 38 0
24 -14 203 210 55 69 149 177 210 241 60 64 113 125 116 136 9 27 -8 69 -33
82 -45 25 -67 14 -159 -81z"/>
<path d="M3330 3845 c-221 -44 -542 -207 -815 -413 -395 -299 -790 -729 -1012
-1102 -79 -133 -143 -267 -143 -300 0 -56 69 -91 113 -57 8 6 44 66 77 132
260 507 794 1067 1321 1386 277 167 551 249 699 209 56 -15 114 -72 129 -125
95 -345 -379 -1098 -1039 -1651 -358 -299 -738 -498 -980 -511 -109 -7 -163 8
-211 56 -46 46 -59 91 -59 208 0 87 -1 93 -26 112 -36 28 -65 26 -95 -5 -21
-22 -24 -37 -28 -116 -10 -256 130 -407 376 -408 155 0 315 47 538 160 491
247 1017 730 1365 1252 309 464 400 853 247 1056 -86 113 -257 157 -457 117z"/>
<path d="M4170 3703 c-55 -20 -65 -76 -24 -136 97 -144 92 -460 -12 -696 -32
-72 -31 -114 2 -140 55 -43 99 -13 142 99 64 164 86 287 85 460 -2 191 -45
328 -124 394 -31 26 -41 29 -69 19z"/>
<path d="M4981 3399 c-12 -14 -22 -42 -26 -78 -30 -258 -151 -653 -276 -903
-22 -43 -39 -91 -39 -108 0 -60 72 -92 119 -52 31 25 152 303 215 494 58 174
96 328 122 502 17 105 17 108 -3 134 -27 37 -83 42 -112 11z"/>
<path d="M2963 3358 c-29 -14 -46 -58 -35 -89 16 -41 107 -119 140 -119 37 0
72 37 72 77 0 24 -12 42 -59 86 -60 57 -78 64 -118 45z"/>
<path d="M361 2863 c-31 -26 -152 -304 -215 -495 -59 -176 -98 -337 -122 -505
-15 -102 -15 -106 3 -132 14 -18 31 -27 56 -29 49 -4 74 25 82 97 30 258 151
653 276 903 22 43 39 91 39 107 0 60 -72 92 -119 54z"/>
<path d="M2445 2816 c-104 -48 -165 -143 -165 -256 0 -158 122 -280 280 -280
158 0 280 122 280 280 0 158 -122 280 -280 280 -47 0 -79 -7 -115 -24z m206
-165 c35 -35 39 -44 39 -91 0 -47 -4 -56 -39 -91 -35 -35 -44 -39 -91 -39 -47
0 -56 4 -91 39 -35 35 -39 44 -39 91 0 47 4 56 39 91 35 35 44 39 91 39 47 0
56 -4 91 -39z"/>
<path d="M896 2388 c-26 -23 -71 -127 -99 -228 -64 -228 -51 -520 28 -656 36
-61 82 -97 114 -89 65 16 79 73 35 138 -97 144 -92 460 12 696 32 72 31 114
-2 140 -34 27 -57 26 -88 -1z"/>
<path d="M1793 2188 c-26 -13 -47 -59 -39 -86 4 -11 31 -43 61 -71 62 -58 97
-66 133 -28 36 39 29 72 -30 133 -56 56 -89 70 -125 52z"/>
<path d="M4296 1778 c-19 -24 -79 -99 -134 -168 -55 -69 -149 -177 -210 -241
-60 -64 -113 -125 -116 -136 -9 -27 8 -69 33 -82 45 -25 67 -14 159 82 208
216 412 469 412 512 0 38 -37 75 -75 75 -28 0 -40 -8 -69 -42z"/>
<path d="M45 1275 c-30 -29 -30 -35 -5 -148 42 -190 129 -392 230 -536 106
-150 292 -321 349 -321 35 0 71 38 71 75 0 22 -11 39 -47 69 -175 153 -263
261 -342 421 -50 101 -101 251 -122 359 -19 98 -81 135 -134 81z"/>
<path d="M3019 1125 c-98 -68 -303 -196 -411 -255 -76 -42 -99 -59 -107 -82
-17 -49 17 -98 67 -98 49 0 493 267 582 350 37 34 40 80 8 110 -34 31 -69 25
-139 -25z"/>
<path d="M3628 1053 c-152 -119 -277 -227 -281 -244 -12 -46 25 -92 72 -92 29
0 126 69 274 196 59 51 67 62 67 92 0 73 -68 97 -132 48z"/>
<path d="M2060 644 c-107 -34 -275 -67 -404 -79 -71 -7 -116 -34 -116 -69 0
-28 22 -64 46 -75 52 -23 353 25 550 90 45 14 64 26 73 45 38 85 -31 126 -149
88z"/>
<path d="M2640 413 c-274 -129 -619 -226 -908 -254 -146 -14 -175 -29 -170
-87 2 -24 11 -41 30 -55 26 -19 32 -19 150 -8 246 24 534 95 790 195 170 66
266 113 277 135 29 53 -3 112 -61 110 -18 0 -67 -17 -108 -36z"/>
</g>
</svg>
