<?xml version="1.0" standalone="no"?>
<!DOCTYPE svg PUBLIC "-//W3C//DTD SVG 20010904//EN"
 "http://www.w3.org/TR/2001/REC-SVG-20010904/DTD/svg10.dtd">
<svg version="1.0" xmlns="http://www.w3.org/2000/svg"
 width="512.000000pt" height="512.000000pt" viewBox="0 0 512.000000 512.000000"
 preserveAspectRatio="xMidYMid meet">

<g transform="translate(0.000000,512.000000) scale(0.100000,-0.100000)"
fill="#000000" stroke="none">
<path d="M1960 5114 c-19 -2 -76 -8 -126 -14 -353 -38 -753 -180 -1073 -381
-141 -88 -299 -210 -314 -242 -19 -37 -11 -73 22 -98 37 -29 65 -22 206 55
303 166 642 264 983 285 741 46 1426 -294 1748 -868 21 -39 12 -32 -85 62
-277 267 -638 428 -1051 468 -146 14 -313 6 -347 -16 -12 -8 -26 -30 -31 -48
-7 -26 -14 -33 -38 -35 -16 -1 -48 -7 -72 -13 -41 -9 -45 -8 -72 21 -36 38
-67 39 -185 1 -127 -40 -236 -85 -335 -139 -622 -336 -1053 -965 -1167 -1702
-21 -137 -24 -474 -5 -617 61 -464 237 -893 520 -1270 79 -105 115 -134 158
-125 36 7 67 50 61 87 -3 16 -35 84 -71 150 -165 300 -264 644 -285 983 -46
739 284 1408 859 1742 l55 32 -91 -94 c-132 -136 -184 -206 -273 -366 -186
-335 -256 -745 -196 -1138 40 -255 141 -538 265 -739 357 -582 978 -979 1680
-1076 123 -17 479 -17 595 -1 471 67 886 238 1262 520 111 84 140 122 124 166
-14 35 -55 60 -89 53 -15 -3 -81 -35 -147 -71 -389 -212 -833 -312 -1260 -285
-631 42 -1176 361 -1465 859 l-32 55 94 -91 c136 -132 206 -184 366 -273 215
-119 448 -188 718 -211 385 -34 831 77 1177 291 347 215 632 532 820 911 83
166 87 184 52 226 l-27 32 27 75 c23 63 31 75 51 75 58 0 73 23 102 160 67
310 66 674 -4 1000 -82 386 -264 770 -519 1098 -64 82 -123 98 -165 44 -28
-35 -25 -57 15 -132 139 -258 205 -422 264 -655 120 -481 71 -1003 -135 -1421
-158 -323 -376 -558 -679 -734 -34 -19 -26 -9 48 66 623 634 659 1666 86 2426
-358 474 -913 801 -1519 893 -100 15 -427 28 -500 19z m670 -1519 c49 -52 13
-135 -59 -135 -47 0 -81 32 -81 79 0 75 89 111 140 56z m322 -319 c28 -21 39
-61 27 -96 -13 -36 -35 -50 -80 -50 -70 0 -106 85 -57 137 24 26 82 31 110 9z
m660 -440 c30 -23 40 -63 24 -101 -33 -79 -156 -53 -156 32 0 65 81 108 132
69z m-937 -46 c196 -19 340 -71 426 -155 59 -57 61 -108 6 -167 -107 -115
-393 -186 -645 -159 -236 25 -425 110 -463 209 -20 52 32 128 123 179 79 46
233 85 373 96 22 2 47 4 55 5 8 1 64 -3 125 -8z m-378 -1062 c42 -45 31 -112
-22 -134 -19 -7 -42 -11 -52 -7 -65 23 -86 103 -37 142 36 28 85 27 111 -1z"/>
<path d="M4103 5002 c-48 -8 -80 -85 -50 -123 50 -66 148 -35 147 46 -1 51
-44 86 -97 77z"/>
<path d="M142 4817 c-30 -32 -29 -87 1 -115 65 -61 164 17 123 96 -25 49 -87
58 -124 19z"/>
<path d="M492 4104 c-79 -33 -44 -154 44 -154 24 0 74 56 74 83 0 32 -33 73
-64 79 -13 3 -38 -1 -54 -8z"/>
<path d="M4889 1407 c-63 -49 -33 -147 45 -147 38 1 62 18 75 53 26 69 -63
138 -120 94z"/>
<path d="M4888 1076 c-29 -21 -41 -65 -27 -98 14 -34 37 -48 76 -48 35 1 59
19 72 53 27 70 -62 138 -121 93z"/>
<path d="M954 562 c-56 -9 -78 -92 -36 -134 27 -27 83 -29 111 -4 60 55 8 152
-75 138z"/>
</g>
</svg>
