<?xml version="1.0" standalone="no"?>
<!DOCTYPE svg PUBLIC "-//W3C//DTD SVG 20010904//EN"
 "http://www.w3.org/TR/2001/REC-SVG-20010904/DTD/svg10.dtd">
<svg version="1.0" xmlns="http://www.w3.org/2000/svg"
 width="512.000000pt" height="512.000000pt" viewBox="0 0 512.000000 512.000000"
 preserveAspectRatio="xMidYMid meet">

<g transform="translate(0.000000,512.000000) scale(0.100000,-0.100000)"
fill="#000000" stroke="none">
<path d="M1960 5114 c-19 -2 -76 -8 -126 -14 -353 -38 -753 -180 -1073 -381
-141 -88 -299 -210 -314 -242 -19 -37 -11 -73 22 -98 37 -29 65 -22 206 55
303 166 642 264 983 285 741 46 1426 -294 1748 -868 21 -39 12 -32 -85 62
-281 271 -649 433 -1065 468 -186 16 -310 6 -342 -27 -32 -31 -31 -77 1 -109
24 -24 28 -25 182 -25 238 0 408 -31 618 -111 245 -94 491 -280 643 -484 70
-94 163 -280 196 -390 37 -122 73 -154 140 -124 41 19 49 56 43 197 -3 70 -12
160 -21 200 -70 324 -285 669 -562 902 -225 190 -522 341 -812 414 -185 47
-270 58 -502 64 l-225 6 90 17 c220 43 564 50 770 15 521 -89 1016 -376 1334
-776 185 -231 284 -432 354 -715 50 -201 61 -296 54 -492 -6 -175 -24 -282
-71 -432 -149 -468 -495 -822 -931 -951 -101 -30 -132 -71 -104 -134 19 -42
56 -50 202 -43 284 13 550 117 820 321 329 247 582 642 691 1075 46 180 59
279 65 506 l6 220 17 -90 c28 -142 38 -258 38 -425 0 -179 -11 -288 -45 -454
-22 -106 -23 -121 -10 -146 15 -30 33 -40 70 -40 59 0 74 23 103 160 67 310
66 674 -4 1000 -82 386 -264 770 -519 1098 -64 82 -123 98 -165 44 -28 -35
-25 -57 15 -132 139 -258 205 -422 264 -655 120 -481 71 -1003 -135 -1421
-158 -323 -376 -558 -679 -734 -34 -19 -26 -9 48 66 623 634 659 1666 86 2426
-358 474 -913 801 -1519 893 -100 15 -427 28 -500 19z"/>
<path d="M4103 5002 c-48 -8 -80 -85 -50 -123 50 -66 148 -35 147 46 -1 51
-44 86 -97 77z"/>
<path d="M142 4817 c-30 -32 -29 -87 1 -115 65 -61 164 17 123 96 -25 49 -87
58 -124 19z"/>
<path d="M1520 4290 c-126 -40 -234 -86 -330 -138 -622 -336 -1053 -965 -1167
-1702 -21 -137 -24 -474 -5 -617 61 -464 237 -893 520 -1270 79 -105 115 -134
158 -125 36 7 67 50 61 87 -3 16 -35 84 -71 150 -165 300 -264 644 -285 983
-46 739 284 1408 859 1742 l55 32 -91 -94 c-132 -136 -184 -206 -273 -366
-186 -335 -256 -745 -196 -1138 40 -255 141 -538 265 -739 357 -582 978 -979
1680 -1076 123 -17 479 -17 595 -1 471 67 886 238 1262 520 111 84 140 122
124 166 -14 35 -55 60 -89 53 -15 -3 -81 -35 -147 -71 -389 -212 -833 -312
-1260 -285 -631 42 -1176 361 -1465 859 l-32 55 94 -91 c293 -287 651 -446
1084 -484 385 -34 831 77 1177 291 347 215 632 532 820 911 82 164 87 185 54
223 -27 32 -82 40 -111 16 -8 -7 -44 -72 -80 -144 -110 -225 -216 -377 -380
-546 -218 -223 -431 -368 -686 -467 -107 -41 -336 -98 -457 -114 -134 -18
-391 -8 -522 20 -546 116 -970 481 -1116 960 -40 129 -93 163 -157 99 l-31
-30 6 -142 c13 -310 134 -605 366 -887 244 -298 625 -532 1029 -634 185 -47
270 -58 502 -64 l225 -6 -90 -17 c-220 -43 -564 -50 -770 -15 -292 50 -591
168 -850 337 -351 228 -630 565 -771 929 -39 103 -91 301 -110 425 -36 238 -7
531 76 770 157 448 493 780 918 905 99 30 130 70 101 134 -19 42 -56 50 -202
43 -301 -14 -599 -138 -877 -366 -297 -243 -532 -624 -634 -1029 -44 -173 -58
-279 -64 -507 l-6 -220 -17 90 c-30 151 -42 326 -36 504 12 333 73 573 222
876 146 297 336 535 582 729 187 148 369 245 601 321 81 26 117 43 132 62 27
34 25 69 -5 98 -32 33 -75 31 -185 -5z"/>
<path d="M492 4104 c-79 -33 -44 -154 44 -154 24 0 74 56 74 83 0 32 -33 73
-64 79 -13 3 -38 -1 -54 -8z"/>
<path d="M2515 3595 c-73 -72 28 -178 109 -114 20 16 26 29 26 59 0 72 -84
106 -135 55z"/>
<path d="M2515 3265 c-51 -50 -15 -135 58 -135 45 0 77 34 77 82 0 70 -86 103
-135 53z"/>
<path d="M2845 3265 c-51 -50 -15 -135 58 -135 45 0 77 34 77 82 0 70 -86 103
-135 53z"/>
<path d="M2356 2944 c-94 -15 -216 -54 -292 -91 -143 -70 -234 -187 -234 -301
1 -238 314 -412 742 -412 343 0 627 117 714 296 23 48 26 63 22 128 -6 90 -34
143 -110 210 -169 148 -535 222 -842 170z m319 -154 c316 -30 533 -169 456
-294 -81 -130 -388 -217 -669 -187 -236 25 -425 110 -463 209 -20 52 32 128
123 179 79 46 233 85 373 96 22 2 47 4 55 5 8 1 65 -3 125 -8z"/>
<path d="M3505 2824 c-32 -35 -32 -78 0 -109 52 -53 135 -18 135 57 0 71 -87
104 -135 52z"/>
<path d="M1525 2605 c-52 -51 -15 -135 59 -135 42 0 76 37 76 82 0 39 -40 78
-80 78 -19 0 -40 -9 -55 -25z"/>
<path d="M2516 1945 c-53 -49 -19 -135 53 -135 74 0 109 83 56 135 -31 32 -74
32 -109 0z"/>
<path d="M2186 1725 c-53 -49 -19 -135 53 -135 74 0 109 83 56 135 -31 32 -74
32 -109 0z"/>
<path d="M4889 1407 c-63 -49 -33 -147 45 -147 38 1 62 18 75 53 26 69 -63
138 -120 94z"/>
<path d="M4888 1076 c-29 -21 -41 -65 -27 -98 14 -34 37 -48 76 -48 35 1 59
19 72 53 27 70 -62 138 -121 93z"/>
<path d="M954 562 c-56 -9 -78 -92 -36 -134 27 -27 83 -29 111 -4 60 55 8 152
-75 138z"/>
</g>
</svg>
