<?xml version="1.0" standalone="no"?>
<!DOCTYPE svg PUBLIC "-//W3C//DTD SVG 20010904//EN"
 "http://www.w3.org/TR/2001/REC-SVG-20010904/DTD/svg10.dtd">
<svg version="1.0" xmlns="http://www.w3.org/2000/svg"
 width="512.000000pt" height="512.000000pt" viewBox="0 0 512.000000 512.000000"
 preserveAspectRatio="xMidYMid meet">

<g transform="translate(0.000000,512.000000) scale(0.100000,-0.100000)"
fill="#000000" stroke="none">
<path d="M1386 4868 c-12 -29 -31 -74 -40 -99 -17 -45 -19 -46 -114 -85 -129
-52 -130 -65 -9 -115 48 -20 93 -41 99 -47 6 -6 27 -51 47 -99 28 -69 41 -88
56 -88 15 0 28 19 56 88 20 48 41 93 47 99 6 6 51 27 99 47 121 50 120 63 -8
115 l-96 39 -39 96 c-48 118 -64 126 -98 49z"/>
<path d="M652 4408 c-6 -7 -22 -43 -37 -80 l-27 -67 -69 -27 c-38 -15 -74 -33
-79 -39 -15 -19 9 -40 75 -65 33 -13 64 -27 70 -32 5 -5 21 -39 35 -76 22 -56
30 -67 49 -67 19 0 28 11 50 65 14 36 29 70 33 76 4 6 39 23 78 38 59 24 71
32 68 49 -2 15 -22 28 -75 50 l-72 29 -26 66 c-27 68 -42 92 -55 92 -4 0 -12
-6 -18 -12z"/>
<path d="M3815 4124 c-16 -2 -79 -9 -140 -15 -763 -75 -1751 -410 -2303 -779
-205 -137 -338 -247 -543 -447 -112 -110 -184 -173 -197 -173 -12 0 -33 11
-49 24 -27 24 -27 24 -15 83 11 54 107 369 127 418 15 35 -42 -38 -120 -155
-258 -386 -384 -841 -334 -1207 32 -236 111 -405 259 -554 128 -129 275 -197
483 -224 28 -4 57 -15 68 -26 27 -27 25 -75 -6 -103 -39 -36 -199 -94 -495
-178 -44 -13 -43 -13 70 -16 133 -4 407 12 595 33 852 98 1780 430 2425 866
264 179 519 413 669 615 47 64 91 114 104 118 39 10 71 -15 92 -74 28 -81 27
-360 -3 -515 -12 -60 -20 -110 -18 -112 5 -5 103 208 139 302 149 391 190 774
116 1074 -76 305 -255 521 -553 667 -101 49 -329 124 -377 124 -11 0 -31 12
-46 26 -20 20 -24 31 -19 57 9 44 18 51 147 118 l114 58 -80 -1 c-44 0 -93 -3
-110 -4z m83 -424 c66 -28 144 -111 166 -176 9 -26 16 -80 16 -119 0 -273
-335 -409 -530 -215 -83 84 -113 218 -74 333 18 53 91 140 138 164 92 48 192
53 284 13z m-515 -123 c31 -20 37 -70 13 -103 -13 -18 -25 -19 -164 -16 -429
10 -872 -100 -1320 -327 -152 -78 -360 -211 -487 -314 -191 -154 -387 -393
-455 -554 -43 -102 -87 -127 -135 -78 -14 13 -25 34 -25 46 0 30 79 194 131
270 302 449 911 839 1572 1009 274 70 425 89 673 87 144 -2 175 -5 197 -20z
m739 -447 c29 -40 51 -163 44 -255 -24 -330 -282 -695 -701 -994 -291 -207
-681 -388 -1036 -481 -272 -70 -381 -84 -649 -84 -200 0 -250 3 -335 21 -199
42 -248 71 -231 137 12 49 44 53 164 23 278 -69 597 -61 957 25 317 75 641
212 919 386 312 196 575 460 694 697 71 142 97 300 68 413 -21 82 -20 91 6
119 29 31 74 28 100 -7z m-860 -16 c402 -90 443 -436 90 -776 -73 -71 -107
-87 -142 -68 -19 10 -40 47 -40 72 0 5 40 51 88 101 141 147 192 237 192 338
0 60 -19 99 -64 134 -66 50 -214 85 -363 85 -78 0 -103 16 -103 66 0 24 8 39
28 54 25 21 34 22 134 16 59 -3 140 -13 180 -22z m-632 -30 c140 -33 280 -123
366 -237 93 -123 137 -252 137 -407 0 -185 -59 -326 -193 -461 -143 -145 -302
-206 -505 -196 -263 14 -481 172 -578 417 -144 366 70 784 453 884 73 19 239
20 320 0z m-931 -540 c12 -15 21 -35 21 -45 0 -10 -28 -49 -62 -86 -118 -130
-177 -249 -165 -335 15 -112 164 -188 370 -188 101 0 141 -15 151 -56 5 -20 2
-35 -12 -53 -18 -25 -25 -26 -122 -29 -127 -3 -229 16 -327 62 -247 118 -268
362 -53 629 105 131 155 157 199 101z m-667 -512 c109 -48 178 -147 186 -268
6 -94 -15 -158 -75 -224 -153 -171 -414 -137 -514 66 -87 176 -5 368 184 436
64 23 154 19 219 -10z"/>
<path d="M3705 3571 c-45 -20 -92 -70 -101 -107 -11 -44 2 -120 26 -154 27
-38 91 -70 140 -70 49 0 113 32 140 70 24 34 37 110 26 154 -14 58 -104 126
-166 126 -14 0 -43 -9 -65 -19z"/>
<path d="M2310 2937 c-214 -73 -360 -277 -360 -501 1 -276 242 -516 517 -516
295 0 527 232 526 525 -1 238 -157 440 -388 501 -80 22 -218 17 -295 -9z"/>
<path d="M858 1910 c-108 -32 -156 -166 -94 -260 94 -143 316 -77 316 94 0 75
-38 130 -112 161 -41 16 -68 18 -110 5z"/>
<path d="M4561 1168 c-40 -103 -66 -165 -73 -175 -5 -6 -50 -28 -101 -48 -51
-20 -96 -41 -101 -45 -17 -16 12 -36 108 -74 l95 -37 37 -95 c38 -95 58 -125
73 -108 5 5 25 53 46 106 l38 98 91 35 c108 42 120 49 114 66 -2 7 -49 31
-104 53 l-99 41 -41 100 c-42 104 -66 127 -83 83z"/>
<path d="M3807 663 c-8 -16 -24 -53 -36 -84 -22 -56 -23 -57 -99 -86 -101 -40
-102 -56 -8 -95 38 -15 74 -32 81 -38 6 -5 24 -41 39 -80 42 -105 53 -104 97
8 28 71 31 74 132 117 77 32 73 50 -18 87 -38 16 -75 34 -81 41 -6 7 -21 39
-34 72 -36 93 -50 104 -73 58z"/>
</g>
</svg>
