<?xml version="1.0" encoding="UTF-8"?>
<svg version="1.1" xmlns="http://www.w3.org/2000/svg" width="512" height="512">
<path d="M0 0 C0.76623688 -0.02044373 1.53247375 -0.04088745 2.32192993 -0.06195068 C7.57596621 -0.08466554 7.57596621 -0.08466554 10.10058594 1.59790039 C11.1015625 3.265625 11.1015625 3.265625 11.21875 6.21484375 C9.92752044 9.7408937 8.62085813 10.5959508 5.28710938 12.18164062 C4.60712891 12.47748047 3.92714844 12.77332031 3.2265625 13.078125 C2.52853516 13.40361328 1.83050781 13.72910156 1.11132812 14.06445312 C-0.40302879 14.769022 -1.92181845 15.46412227 -3.44433594 16.15087891 C-6.92440895 17.73166018 -10.36831485 19.38585387 -13.81689453 21.03393555 C-17.50368126 22.79295191 -21.20087982 24.52938052 -24.8984375 26.265625 C-21.48079702 27.4452622 -18.05144989 28.5198281 -14.5703125 29.4921875 C16.07747347 38.12690609 44.83443583 53.62021625 61.328125 81.99609375 C65.69171705 90.04086588 69.2223178 98.06724255 71.8515625 106.828125 C72.05031982 107.48780273 72.24907715 108.14748047 72.45385742 108.82714844 C75.86596974 120.83754979 76.50632508 132.61706784 76.4765625 145.015625 C76.47635101 145.82932556 76.47613953 146.64302612 76.47592163 147.48138428 C76.43993949 161.39982069 75.26538865 174.67614008 72.1015625 188.265625 C71.91432617 189.09610352 71.72708984 189.92658203 71.53417969 190.78222656 C65.03905461 219.0399469 53.83387792 249.05966881 36.1015625 272.265625 C29.2265625 271.390625 29.2265625 271.390625 28.1015625 270.265625 C27.68910456 264.36669817 28.92127302 259.32023492 30.4140625 253.640625 C37.50796012 226.050613 37.50796012 226.050613 35.1015625 198.265625 C32.82898677 197.36688536 32.82898677 197.36688536 30.1015625 197.265625 C27.75393098 199.06598482 27.75393098 199.06598482 25.7265625 201.703125 C24.9428125 202.63253906 24.1590625 203.56195313 23.3515625 204.51953125 C22.6090625 205.42574219 21.8665625 206.33195313 21.1015625 207.265625 C19.98230203 208.56226827 18.85778444 209.8544039 17.7265625 211.140625 C17.17097656 211.77613281 16.61539062 212.41164063 16.04296875 213.06640625 C9.40868084 220.58170624 2.80794702 227.82805595 -4.8984375 234.265625 C-5.87941406 235.13445312 -6.86039062 236.00328125 -7.87109375 236.8984375 C-17.07920493 245.03312742 -26.82128278 252.24715615 -36.8984375 259.265625 C-37.5176709 259.70084473 -38.1369043 260.13606445 -38.77490234 260.58447266 C-106.82614548 308.2109044 -191.21960333 335.86207491 -373.8984375 351.265625 C-379.54860252 349.61545998 -379.54860252 349.61545998 -380.8984375 348.265625 C-380.61113695 345.92617764 -380.27906971 343.5917107 -379.8984375 341.265625 C-372.48906606 339.27725097 -365.07781482 337.30358875 -357.64453125 335.40625 C-333.70559813 329.46012198 -333.70559813 329.46012198 -310.8984375 320.265625 C-312.1565625 320.05808594 -313.4146875 319.85054688 -314.7109375 319.63671875 C-338.58363513 315.44733344 -358.79186237 305.61837585 -373.5234375 285.578125 C-379.91631365 275.87599532 -384.90218493 266.27114319 -388.2734375 255.140625 C-388.63127319 253.96137451 -388.63127319 253.96137451 -388.99633789 252.75830078 C-392.29326861 241.16482917 -393.26525493 229.65796853 -393.2109375 217.640625 C-393.20529785 216.32392822 -393.1996582 215.00723145 -393.19384766 213.65063477 C-392.64009696 168.93115377 -372.29565499 127.17317382 -345.47900391 92.32470703 C-344.04163622 90.45217706 -342.6299259 88.56313487 -341.22265625 86.66796875 C-340.07216797 85.16943359 -340.07216797 85.16943359 -338.8984375 83.640625 C-337.939375 82.38378906 -337.939375 82.38378906 -336.9609375 81.1015625 C-334.3173652 78.74838261 -332.38922196 78.46984776 -328.8984375 78.265625 C-326.9609375 79.203125 -326.9609375 79.203125 -325.8984375 81.265625 C-326.24501689 88.53533909 -328.71413255 94.81945418 -331.2734375 101.578125 C-335.97692831 113.17584736 -335.97692831 113.17584736 -338.8984375 125.265625 C-337.9084375 126.750625 -337.9084375 126.750625 -336.8984375 128.265625 C-332.5303421 127.75716945 -330.49658227 126.39617891 -327.3359375 123.390625 C-326.46324219 122.5759375 -325.59054687 121.76125 -324.69140625 120.921875 C-323.76972656 120.0453125 -322.84804688 119.16875 -321.8984375 118.265625 C-314.13716409 110.96594876 -306.21665613 104.13892214 -297.74462891 97.67919922 C-295.88292897 96.25375057 -294.03690402 94.80962187 -292.19140625 93.36328125 C-257.80454285 66.67766541 -216.69264788 48.75363505 -175.8984375 34.265625 C-175.2558197 34.03723938 -174.6132019 33.80885376 -173.95111084 33.57354736 C-126.41307106 16.72760697 -77.55008407 5.8624185 -27.2734375 1.515625 C-26.16683273 1.41767639 -26.16683273 1.41767639 -25.03787231 1.31774902 C-16.69906086 0.59238147 -8.37062888 0.12108305 0 0 Z " fill="#7544C3" transform="translate(414.8984375,90.734375)"/>
<path d="M0 0 C1.10859375 0.19078125 2.2171875 0.3815625 3.359375 0.578125 C5.91086358 1.03143515 8.45673006 1.50297843 11 2 C10.95359375 2.83402344 10.9071875 3.66804687 10.859375 4.52734375 C10.56933583 13.57035074 11.50869304 19.75381586 17.3125 26.8125 C24.28128367 32.48476578 28.53887023 33.64358058 37.609375 33.40234375 C42.24355441 32.85243536 45.06005428 31.45317375 49 29 C49.99 28.67 50.98 28.34 52 28 C52 27.34 52 26.68 52 26 C54.90197883 26.32456342 55.85077603 26.82557812 57.78125 29.08203125 C66.82729793 43.45291193 69.90444689 58.57469883 66.15234375 75.34765625 C59.66234846 99.4541883 43.12402522 121.28025761 25 138 C24.43667969 138.52207031 23.87335938 139.04414063 23.29296875 139.58203125 C4.2547598 156.69637909 -17.28543171 170.32997284 -40 182 C-40.76924805 182.40025391 -41.53849609 182.80050781 -42.33105469 183.21289062 C-65.8329286 195.330238 -91.19152759 203.53611288 -117 209 C-118.00224609 209.22300781 -119.00449219 209.44601562 -120.03710938 209.67578125 C-135.17037157 212.94512749 -150.1405979 213.3836795 -165.5625 213.4375 C-166.49876221 213.44385468 -167.43502441 213.45020935 -168.3996582 213.45675659 C-190.53689731 213.55024976 -210.35611697 209.91486297 -230.07421875 199.453125 C-233.40956123 197.76192298 -233.40956123 197.76192298 -237 197 C-237.928125 197.639375 -238.85625 198.27875 -239.8125 198.9375 C-245.55108772 202.50238025 -252.52949562 201.68073636 -259 201 C-265.31943659 199.35694649 -269.38982152 195.29717777 -273 190 C-276.69240989 183.59982286 -277.08086863 176.87647708 -275.49609375 169.7265625 C-273.44077181 163.59583077 -269.90635334 158.95107496 -264.3125 155.625 C-261 154 -261 154 -259 154 C-259.04640625 153.37996094 -259.0928125 152.75992188 -259.140625 152.12109375 C-259.9522743 132.20669848 -249.72561136 113.4166299 -238 98 C-237.37222656 97.14921875 -236.74445313 96.2984375 -236.09765625 95.421875 C-224.82812414 80.87190484 -210.97482396 67.67849545 -196 57 C-195.37029297 56.5472168 -194.74058594 56.09443359 -194.09179688 55.62792969 C-140.33982663 17.20718642 -66.91347009 -11.73364167 0 0 Z " fill="#683BAA" transform="translate(349,161)"/>
<path d="M0 0 C13.62624085 10.27103581 22.05441174 23.78075966 24.875 40.6875 C26.52625103 56.9157147 22.65798263 72.4843673 12.6640625 85.5859375 C10.48629678 88.06100912 8.24143949 90.39328578 5.875 92.6875 C5.31167969 93.25984375 4.74835938 93.8321875 4.16796875 94.421875 C-6.08170792 104.09796879 -20.27582724 108.2709144 -34.0625 108.0625 C-35.02961914 108.05307373 -35.99673828 108.04364746 -36.99316406 108.03393555 C-43.74098511 107.89103114 -49.84792017 107.33048098 -56.125 104.6875 C-56.95644531 104.3471875 -57.78789062 104.006875 -58.64453125 103.65625 C-71.58472815 97.77253528 -81.04184008 88.257583 -87.4375 75.75 C-87.77539551 75.09386719 -88.11329102 74.43773437 -88.46142578 73.76171875 C-94.70933524 60.95587699 -95.40560595 44.26555203 -91.5625 30.625 C-85.13901001 13.33956686 -73.60610148 1.46160447 -57.125 -6.3125 C-38.41249617 -14.60047221 -16.70096774 -11.38836627 0 0 Z " fill="#FEB84A" transform="translate(288.125,219.3125)"/>
<path d="M0 0 C0.99 0.33 1.98 0.66 3 1 C2.72285156 1.66386719 2.44570312 2.32773438 2.16015625 3.01171875 C1.79792969 3.89472656 1.43570313 4.77773437 1.0625 5.6875 C0.70285156 6.55761719 0.34320313 7.42773438 -0.02734375 8.32421875 C-4.87223106 21.6525232 -3.18925337 39.53160621 2.44140625 52.2578125 C10.13281692 67.64063385 21.96842305 77.84646541 38 84 C21.31116554 92.72618795 -5.87890519 92.7772533 -23.8203125 88.10546875 C-32.59306201 85.05548336 -42.16733228 81.43858133 -47 73 C-50.23501643 66.28906166 -50.56955737 58.03462985 -48.35107422 50.91845703 C-44.59692257 41.48078238 -38.87834896 33.42670954 -32 26 C-31.34902344 25.26910156 -30.69804687 24.53820312 -30.02734375 23.78515625 C-22.90948111 16.20099817 -14.38139894 10.10653857 -6 4 C-5.4229834 3.56768066 -4.8459668 3.13536133 -4.25146484 2.68994141 C-2.66796875 1.55078125 -2.66796875 1.55078125 0 0 Z " fill="#593391" transform="translate(198,241)"/>
<path d="M0 0 C1.96960693 -0.02731201 1.96960693 -0.02731201 3.97900391 -0.05517578 C16.77125222 0.0234618 30.35833936 2.16501271 40.5625 10.5 C46.44347233 16.74930045 49.1301784 22.80278068 48.93359375 31.40625 C46.6871303 50.13466109 30.58944864 66.16984536 16.5625 77.5 C1.4208065 88.8805645 1.4208065 88.8805645 -3.4375 90.5 C-2.7838347 86.44727515 -1.53395547 82.72959303 -0.15625 78.87890625 C4.05781883 64.93125453 2.13209753 49.24076234 -3.98046875 36.2109375 C-11.37380216 22.84541486 -22.12075251 12.38116859 -36.8125 7.4375 C-38.00875 7.128125 -39.205 6.81875 -40.4375 6.5 C-32.1090553 -1.8284447 -11.17952817 0.06866265 0 0 Z " fill="#593391" transform="translate(310.4375,205.5)"/>
<path d="M0 0 C5.70838753 5.01982716 9.34512898 10.66879645 10.27734375 18.2578125 C10.60035805 25.88095009 7.75282146 32.09108684 3 38 C-4.91776676 43.946339 -12.15295869 45.0941157 -22 44 C-30.07537041 41.02486353 -34.70029119 35.8184375 -38.3125 28.25 C-39.81912675 21.12776447 -40.08512498 14.27418724 -36.32421875 7.84765625 C-27.70783595 -4.17461238 -13.03082613 -8.75278133 0 0 Z " fill="#66CAFE" transform="translate(398,151)"/>
<path d="M0 0 C4.74924187 3.219825 9.03118977 7.99653946 11.07421875 13.40625 C11.7782169 20.51171966 12.32809001 28.40170343 8.48046875 34.6953125 C4.01662766 40.12631915 -1.14123929 45.03128386 -8.31640625 45.7421875 C-16.70463731 45.82708862 -23.22505956 45.7619646 -29.62890625 39.828125 C-35.36380868 33.64779325 -37.47511282 27.50188231 -37.2109375 19.1171875 C-36.48673531 12.23230643 -33.84221823 7.32268698 -28.92578125 2.40625 C-20.27459389 -3.67874246 -9.55784755 -4.80466304 0 0 Z " fill="#FD5859" transform="translate(109.92578125,316.59375)"/>
<path d="M0 0 C2.68300071 1.34150035 2.8437032 2.60687715 3.9453125 5.3671875 C4.29980469 6.25277344 4.65429688 7.13835937 5.01953125 8.05078125 C5.38433594 8.98277344 5.74914062 9.91476562 6.125 10.875 C6.49753906 11.79925781 6.87007813 12.72351563 7.25390625 13.67578125 C10 20.60639881 10 20.60639881 10 24 C11.175625 24.37125 12.35125 24.7425 13.5625 25.125 C20.49748605 27.42554826 27.23580524 30.24619739 34 33 C34 33.99 34 34.98 34 36 C33.35039307 36.15218994 32.70078613 36.30437988 32.03149414 36.46118164 C19.05168137 39.56489134 19.05168137 39.56489134 9.02734375 47.68359375 C5.72219021 54.11994537 3.64676578 60.97095157 2 68 C1.01 68 0.02 68 -1 68 C-1.15218994 67.35039307 -1.30437988 66.70078613 -1.46118164 66.03149414 C-4.56489134 53.05168137 -4.56489134 53.05168137 -12.68359375 43.02734375 C-19.11994537 39.72219021 -25.97095157 37.64676578 -33 36 C-33 35.01 -33 34.02 -33 33 C-32.03175293 32.65388672 -32.03175293 32.65388672 -31.04394531 32.30078125 C-28.10098929 31.2298458 -25.17628359 30.11564562 -22.25 29 C-21.23421875 28.63777344 -20.2184375 28.27554687 -19.171875 27.90234375 C-12.67725508 25.4431586 -12.67725508 25.4431586 -8.49609375 20.18359375 C-7.96396034 18.80147543 -7.46481502 17.40618776 -7 16 C-6.44884158 14.65556137 -5.89291264 13.31306771 -5.33203125 11.97265625 C-4.82188828 10.67068832 -4.31535141 9.36730144 -3.8125 8.0625 C-1.12793887 1.12793887 -1.12793887 1.12793887 0 0 Z " fill="#FFDF3F" transform="translate(468,392)"/>
<path d="M0 0 C0.99 0.33 1.98 0.66 3 1 C3.80175781 3.08203125 3.80175781 3.08203125 4.453125 5.8125 C7.37754565 17.2056792 7.37754565 17.2056792 14.67041016 25.96826172 C21.11092638 29.27499404 27.96663984 31.35222407 35 33 C35 33.99 35 34.98 35 36 C34.35562988 36.14695313 33.71125977 36.29390625 33.04736328 36.4453125 C19.99780869 39.56686618 19.99780869 39.56686618 9.92919922 47.78173828 C6.34976134 54.50136187 3.96975281 61.66104021 2 69 C-0.59390243 66.70789657 -1.77766187 64.60853245 -3.04296875 61.40234375 C-3.39423828 60.51869141 -3.74550781 59.63503906 -4.10742188 58.72460938 C-4.46384766 57.80486328 -4.82027344 56.88511719 -5.1875 55.9375 C-5.55552734 55.01388672 -5.92355469 54.09027344 -6.30273438 53.13867188 C-9 46.28791744 -9 46.28791744 -9 44 C-9.63292969 43.90847656 -10.26585937 43.81695312 -10.91796875 43.72265625 C-15.22121363 42.71365713 -19.21261331 41.07163006 -23.3125 39.4375 C-24.14845703 39.10814453 -24.98441406 38.77878906 -25.84570312 38.43945312 C-27.89863546 37.63001123 -29.94997286 36.81676543 -32 36 C-32 35.01 -32 34.02 -32 33 C-31.03175293 32.65388672 -31.03175293 32.65388672 -30.04394531 32.30078125 C-27.10098929 31.2298458 -24.17628359 30.11564562 -21.25 29 C-20.23421875 28.63777344 -19.2184375 28.27554688 -18.171875 27.90234375 C-11.69093713 25.45105187 -11.69093713 25.45105187 -7.5 20.21875 C-6.96391877 18.82585518 -6.46400082 17.41853527 -6 16 C-5.43397912 14.57224653 -4.86626841 13.14516184 -4.296875 11.71875 C-3.77666717 10.31418885 -3.26102568 8.90792789 -2.75 7.5 C-2.481875 6.77296875 -2.21375 6.0459375 -1.9375 5.296875 C-1.28756176 3.53275692 -0.6431775 1.76659419 0 0 Z " fill="#FFDF3F" transform="translate(147,13)"/>
<path d="M0 0 C0.66 0 1.32 0 2 0 C2.13760742 0.56396484 2.27521484 1.12792969 2.41699219 1.70898438 C5.23220316 12.99862482 5.23220316 12.99862482 12.34179688 21.73242188 C17.93341465 24.64601429 23.88756888 26.50856681 30 28 C28.70374815 30.59250371 27.70451437 30.70112231 25.03515625 31.7265625 C24.23529297 32.0359375 23.43542969 32.3453125 22.61132812 32.6640625 C21.3496582 33.13972656 21.3496582 33.13972656 20.0625 33.625 C19.22525391 33.94984375 18.38800781 34.2746875 17.52539062 34.609375 C11.28264509 37 11.28264509 37 9 37 C8.89816406 37.66386719 8.79632813 38.32773437 8.69140625 39.01171875 C7.81681465 42.79173327 6.41394985 46.23270859 4.9375 49.8125 C4.65583984 50.50537109 4.37417969 51.19824219 4.08398438 51.91210938 C3.39325027 53.60967624 2.69716272 55.30506312 2 57 C1.34 57 0.68 57 0 57 C-1.17314026 54.23174812 -2.33870215 51.46071514 -3.5 48.6875 C-3.83386719 47.90181641 -4.16773438 47.11613281 -4.51171875 46.30664062 C-4.82753906 45.54931641 -5.14335937 44.79199219 -5.46875 44.01171875 C-5.90864258 42.96697388 -5.90864258 42.96697388 -6.35742188 41.90112305 C-7 40 -7 40 -7 37 C-7.89138672 36.76216797 -7.89138672 36.76216797 -8.80078125 36.51953125 C-15.52497495 34.62671778 -21.71039612 32.02522772 -28 29 C-24.51069535 26.02067065 -20.60283265 24.45260749 -16.375 22.8125 C-15.694375 22.53986328 -15.01375 22.26722656 -14.3125 21.98632812 C-9.27449483 20 -9.27449483 20 -7 20 C-6.89816406 19.33613281 -6.79632813 18.67226563 -6.69140625 17.98828125 C-5.81681465 14.20826673 -4.41394985 10.76729141 -2.9375 7.1875 C-2.65583984 6.49462891 -2.37417969 5.80175781 -2.08398438 5.08789062 C-1.39325027 3.39032376 -0.69716272 1.69493688 0 0 Z " fill="#FFDF3F" transform="translate(392,442)"/>
<path d="M0 0 C0.66 0 1.32 0 2 0 C2.13760742 0.56396484 2.27521484 1.12792969 2.41699219 1.70898438 C5.23220316 12.99862482 5.23220316 12.99862482 12.34179688 21.73242188 C17.93341465 24.64601429 23.88756888 26.50856681 30 28 C28.70374815 30.59250371 27.70451437 30.70112231 25.03515625 31.7265625 C24.23529297 32.0359375 23.43542969 32.3453125 22.61132812 32.6640625 C21.3496582 33.13972656 21.3496582 33.13972656 20.0625 33.625 C19.22525391 33.94984375 18.38800781 34.2746875 17.52539062 34.609375 C11.28264509 37 11.28264509 37 9 37 C8.82984375 37.60585937 8.6596875 38.21171875 8.484375 38.8359375 C6.68433058 45.05949532 4.50381567 51.02642961 2 57 C1.34 57 0.68 57 0 57 C-0.18473877 56.45061768 -0.36947754 55.90123535 -0.55981445 55.33520508 C-3.95563006 44.51081551 -3.95563006 44.51081551 -10.6640625 35.765625 C-13.42358989 34.56853424 -16.08957031 33.7481613 -19 33 C-20.74245995 32.25970632 -22.47315684 31.49076142 -24.1875 30.6875 C-25.45811722 30.12451199 -26.72886216 29.56181154 -28 29 C-24.51069535 26.02067065 -20.60283265 24.45260749 -16.375 22.8125 C-15.694375 22.53986328 -15.01375 22.26722656 -14.3125 21.98632812 C-9.27449483 20 -9.27449483 20 -7 20 C-6.89816406 19.33613281 -6.79632813 18.67226562 -6.69140625 17.98828125 C-5.81681465 14.20826673 -4.41394985 10.76729141 -2.9375 7.1875 C-2.65583984 6.49462891 -2.37417969 5.80175781 -2.08398438 5.08789062 C-1.39325027 3.39032376 -0.69716272 1.69493688 0 0 Z " fill="#FFDF3F" transform="translate(72,63)"/>
</svg>
