<?xml version="1.0" standalone="no"?>
<!DOCTYPE svg PUBLIC "-//W3C//DTD SVG 20010904//EN"
 "http://www.w3.org/TR/2001/REC-SVG-20010904/DTD/svg10.dtd">
<svg version="1.0" xmlns="http://www.w3.org/2000/svg"
 width="512.000000pt" height="512.000000pt" viewBox="0 0 512.000000 512.000000"
 preserveAspectRatio="xMidYMid meet">

<g transform="translate(0.000000,512.000000) scale(0.100000,-0.100000)"
fill="#000000" stroke="none">
<path d="M1442 5043 c-12 -10 -40 -65 -62 -123 -23 -58 -46 -110 -52 -117 -5
-7 -58 -31 -116 -53 -110 -43 -142 -66 -142 -104 0 -39 22 -55 144 -104 l119
-49 45 -114 c48 -125 54 -135 93 -144 43 -10 73 27 121 150 l44 109 113 46
c134 53 162 79 141 129 -12 30 -35 42 -205 109 l-50 20 -47 118 c-27 66 -56
125 -65 132 -24 17 -57 15 -81 -5z m139 -375 l51 -22 -51 -22 c-45 -20 -55
-30 -75 -76 l-23 -53 -23 54 c-20 46 -29 56 -74 75 l-51 23 52 22 c45 20 54
29 74 74 l22 52 24 -53 c20 -47 29 -56 74 -74z"/>
<path d="M690 4542 c-13 -10 -39 -60 -60 -112 l-37 -93 -90 -36 c-110 -44
-123 -54 -123 -97 0 -44 14 -55 112 -94 46 -18 88 -38 95 -44 6 -6 27 -51 47
-100 36 -90 56 -115 91 -116 39 0 63 30 101 124 l37 95 91 36 c95 38 126 62
126 99 0 38 -22 55 -120 95 l-95 39 -41 99 c-29 69 -48 102 -65 110 -32 17
-43 16 -69 -5z m55 -283 c9 -17 30 -36 46 -43 l31 -13 -32 -13 c-17 -7 -38
-27 -47 -43 l-15 -31 -15 28 c-8 15 -27 35 -43 45 l-30 18 35 16 c21 10 37 26
41 42 8 32 10 32 29 -6z"/>
<path d="M3930 4263 c-19 -1 -87 -8 -150 -14 -678 -63 -1413 -278 -2070 -605
-304 -151 -596 -354 -817 -568 -29 -28 -53 -47 -53 -43 0 4 23 71 51 149 59
165 120 299 172 381 21 32 37 70 37 86 0 53 -50 82 -99 57 -36 -19 -224 -218
-327 -346 -505 -631 -658 -1368 -393 -1894 101 -199 234 -331 429 -425 46 -23
91 -41 99 -41 33 -1 -16 -19 -155 -58 -173 -49 -324 -79 -478 -95 -110 -11
-120 -14 -139 -38 -25 -35 -13 -77 31 -102 79 -46 342 -77 658 -77 683 0 1405
147 2119 432 651 261 1161 591 1516 985 56 62 86 88 91 80 11 -20 -10 -221
-38 -355 -14 -67 -43 -184 -66 -260 -55 -185 -55 -186 -25 -216 15 -14 34 -26
44 -26 71 0 231 207 352 455 254 518 327 1068 195 1472 -114 350 -393 616
-778 743 -82 27 -97 15 156 125 211 92 236 116 187 179 l-20 26 -247 -2 c-136
0 -263 -3 -282 -5z m43 -187 c-128 -62 -163 -91 -163 -136 0 -47 27 -64 146
-93 223 -56 424 -157 564 -285 358 -326 419 -918 163 -1572 -41 -105 -128
-290 -136 -290 -2 0 5 42 15 93 28 134 35 409 14 502 -18 77 -38 105 -72 105
-39 0 -53 -10 -101 -78 -406 -570 -1227 -1061 -2253 -1348 -458 -128 -876
-192 -1315 -200 l-260 -4 150 44 c160 47 319 105 366 133 37 22 53 61 40 95
-13 36 -22 39 -121 54 -368 55 -619 312 -697 713 -22 116 -21 344 2 476 41
235 133 479 263 695 52 87 174 262 179 257 1 -2 -11 -44 -27 -93 -17 -49 -49
-154 -72 -232 l-41 -144 20 -26 c13 -17 31 -28 52 -30 28 -3 44 9 174 140 229
230 496 439 738 578 124 71 411 207 594 281 502 202 1035 338 1545 393 179 20
210 22 285 24 l60 2 -112 -54z"/>
<path d="M3723 3704 c-58 -21 -138 -96 -171 -158 -23 -44 -27 -63 -27 -136 1
-99 22 -154 86 -219 153 -159 418 -110 511 94 31 67 31 180 1 246 -28 64 -87
125 -147 156 -64 33 -187 41 -253 17z m186 -138 c107 -56 130 -196 46 -280
-81 -82 -229 -56 -276 48 -53 118 27 246 154 246 26 0 61 -7 76 -14z"/>
<path d="M3115 3594 c-592 -43 -1183 -267 -1660 -628 -99 -75 -290 -259 -361
-347 -109 -137 -214 -326 -216 -390 -1 -39 27 -69 67 -69 39 0 54 16 89 100
67 159 267 401 461 557 311 251 722 453 1135 559 216 55 384 76 614 78 l199 1
20 27 c24 32 17 71 -16 92 -23 15 -231 27 -332 20z"/>
<path d="M4102 3150 c-35 -15 -45 -53 -27 -113 8 -28 15 -85 15 -127 0 -307
-265 -666 -712 -966 -464 -310 -1037 -495 -1538 -495 -187 1 -269 10 -409 47
-106 29 -134 24 -151 -22 -13 -34 6 -74 43 -92 50 -24 240 -61 372 -72 450
-38 1060 114 1549 387 314 175 591 404 760 631 86 114 180 302 206 412 37 157
20 348 -36 398 -27 24 -37 26 -72 12z"/>
<path d="M3000 3110 c-27 -27 -25 -66 3 -94 21 -21 35 -24 153 -29 142 -6 204
-20 276 -66 51 -32 88 -91 88 -139 0 -92 -79 -228 -204 -352 -83 -81 -94 -112
-56 -150 34 -34 70 -26 135 32 122 109 227 268 255 387 59 251 -160 431 -525
431 -92 0 -108 -3 -125 -20z"/>
<path d="M2421 3089 c-259 -51 -461 -239 -526 -489 -22 -85 -23 -235 -1 -320
60 -239 246 -425 486 -486 85 -22 236 -21 320 1 283 74 479 316 497 610 18
319 -207 613 -523 680 -75 16 -184 18 -253 4z m238 -144 c91 -22 176 -70 246
-140 203 -203 207 -515 9 -725 -104 -110 -227 -162 -383 -162 -285 1 -510 225
-514 512 -1 153 52 279 163 384 134 126 303 172 479 131z"/>
<path d="M1645 2529 c-155 -143 -250 -346 -225 -481 35 -185 205 -289 495
-305 103 -5 112 -4 138 17 33 26 36 71 7 100 -16 16 -34 20 -87 20 -85 0 -194
16 -255 36 -215 70 -213 257 4 491 68 73 75 108 32 142 -38 30 -59 26 -109
-20z"/>
<path d="M867 2035 c-163 -62 -248 -247 -188 -405 78 -206 338 -270 500 -124
164 148 134 403 -60 509 -44 24 -68 29 -134 32 -53 2 -93 -2 -118 -12z m182
-140 c70 -36 112 -128 92 -197 -24 -79 -92 -130 -171 -130 -131 0 -208 132
-147 252 39 78 150 115 226 75z"/>
<path d="M4641 1253 c-11 -10 -39 -67 -62 -128 -23 -60 -43 -112 -45 -114 -1
-1 -56 -24 -121 -50 -131 -52 -156 -75 -137 -128 8 -24 27 -35 133 -78 l124
-51 19 -49 c67 -170 79 -193 109 -205 50 -21 76 7 129 141 l46 113 109 44
c103 40 155 76 155 105 -1 40 -28 61 -144 107 l-118 47 -49 119 c-26 65 -56
124 -66 131 -24 18 -57 16 -82 -4z m140 -373 l54 -23 -53 -23 c-47 -21 -55
-29 -74 -75 l-22 -53 -23 52 c-20 46 -29 55 -75 76 l-53 23 52 22 c45 20 54
29 74 74 l22 52 23 -51 c19 -45 29 -54 75 -74z"/>
<path d="M3891 753 c-12 -10 -39 -60 -60 -112 l-37 -94 -91 -36 c-109 -44
-123 -54 -123 -96 0 -42 18 -56 125 -99 l90 -36 35 -91 c21 -54 45 -99 59
-110 54 -43 89 -16 137 105 l37 95 91 36 c105 42 126 58 126 95 0 43 -22 61
-121 100 l-94 38 -38 93 c-20 51 -43 99 -50 106 -23 22 -62 25 -86 6z m54
-284 c9 -17 30 -36 46 -43 l31 -13 -32 -13 c-17 -7 -38 -26 -46 -43 l-16 -30
-12 24 c-6 13 -26 33 -43 45 l-32 21 34 16 c21 10 37 26 41 42 8 32 10 32 29
-6z"/>
</g>
</svg>
